<svg width="12" height="14" viewBox="0 0 12 14" fill="none" xmlns="http://www.w3.org/2000/svg">
<path d="M6.772 5.97067C6.36244 5.42482 5.80707 5.11819 5.228 5.11819C4.64892 5.11819 4.09355 5.42482 3.684 5.97067L2.1395 8.02933C1.72994 8.57541 1.49985 9.31606 1.49985 10.0883C1.49985 10.8606 1.72994 11.6013 2.1395 12.1473C2.54906 12.6934 3.10454 13.0002 3.68375 13.0002C4.26295 13.0002 4.81844 12.6934 5.228 12.1473L6 11.118" stroke="#A56FFF" stroke-width="2" stroke-linecap="round" stroke-linejoin="round"/>
<path d="M5.228 8.02933C5.63755 8.57518 6.19292 8.88181 6.772 8.88181C7.35107 8.88181 7.90644 8.57518 8.316 8.02933L9.8605 5.97067C10.2701 5.42459 10.5001 4.68394 10.5001 3.91167C10.5001 3.13939 10.2701 2.39875 9.8605 1.85267C9.45094 1.30659 8.89545 0.999801 8.31625 0.999801C7.73704 0.999801 7.18156 1.30659 6.772 1.85267L6 2.882" stroke="#A56FFF" stroke-width="2" stroke-linecap="round" stroke-linejoin="round"/>
</svg>
